<svg xmlns="http://www.w3.org/2000/svg" viewBox="0 0 2.73 3">
  <defs>
    <style>
      .cls-1 {
        fill: #fff;
      }

      .cls-2 {
        fill: #e0042a;
      }
    </style>
  </defs>
  <title>Asset 7Bell Alert</title>
  <g id="Layer_2" data-name="Layer 2">
    <g id="Layer_1-2" data-name="Layer 1">
      <g>
        <path class="cls-1" d="M2.14,1.25a.46.46,0,0,0,.14.18.38.38,0,0,0,.15.07.34.34,0,0,1,.15.08.4.4,0,0,1,.12.19q.07.21-.25.55a2.27,2.27,0,0,1-.85.53A2.35,2.35,0,0,1,.59,3q-.45,0-.53-.25a.43.43,0,0,1,0-.38A.5.5,0,0,0,.16,2,3,3,0,0,1,0,1,.93.93,0,0,1,.39.32.26.26,0,0,0,.49.14.15.15,0,0,1,.58,0a.15.15,0,0,1,.16,0A.25.25,0,0,0,.93.11.88.88,0,0,1,1.6.34,3.65,3.65,0,0,1,2.14,1.25ZM1.51,2.62a2.09,2.09,0,0,0,.54-.29A1.77,1.77,0,0,0,2.39,2q.1-.13.08-.17s-.07-.09-.17-.11a1.2,1.2,0,0,0-.42,0,2.83,2.83,0,0,0-.63.16,2.66,2.66,0,0,0-.59.29,1.22,1.22,0,0,0-.32.28q-.08.12-.06.18s.07.05.17.07a1.73,1.73,0,0,0,.45,0A2.17,2.17,0,0,0,1.51,2.62ZM1.3,2l.07,0,.06,0h0a.3.3,0,0,1-.06.28.6.6,0,0,1-.3.21.48.48,0,0,1-.52,0A2.39,2.39,0,0,1,1.3,2Z"/>
        <path class="cls-2" d="M2.16,0a.55.55,0,0,1,.28.08.57.57,0,0,1,.21.21.56.56,0,0,1,.08.28.56.56,0,0,1-.08.28.56.56,0,0,1-.21.21.55.55,0,0,1-.28.08.56.56,0,0,1-.29-.08A.54.54,0,0,1,1.67.85.6.6,0,0,1,1.59.57.5.5,0,0,1,1.67.28.63.63,0,0,1,1.88.08.53.53,0,0,1,2.16,0Zm.09.67V.21H2.05V.67h.19Zm0,.25V.76H2.07V.94h.17Z"/>
      </g>
    </g>
  </g>
</svg>
