<?xml version="1.0" encoding="iso-8859-1"?>
<!-- Generator: Adobe Illustrator 15.1.0, SVG Export Plug-In . SVG Version: 6.00 Build 0)  -->
<!DOCTYPE svg PUBLIC "-//W3C//DTD SVG 1.1//EN" "http://www.w3.org/Graphics/SVG/1.1/DTD/svg11.dtd">
<svg version="1.1" id="Nav-Right" xmlns="http://www.w3.org/2000/svg" xmlns:xlink="http://www.w3.org/1999/xlink" x="0px" y="0px"
	 width="18.261px" height="18.262px" viewBox="0 0 18.261 18.262" style="enable-background:new 0 0 18.261 18.262;"
	 xml:space="preserve">
<g>
	<path style="fill:#FFFFFF;" d="M8.353,5.82l2.713,2.832c0.127,0.128,0.191,0.284,0.191,0.468s-0.064,0.34-0.191,0.468L8.353,12.42
		c-0.128,0.128-0.287,0.192-0.48,0.192c-0.191,0-0.352-0.064-0.479-0.192c-0.288-0.288-0.288-0.608,0-0.96l2.232-2.328L7.393,6.781
		c-0.288-0.352-0.288-0.672,0-0.96c0.128-0.127,0.292-0.192,0.492-0.192S8.242,5.693,8.353,5.82z"/>
</g>
<circle id="Circle" style="fill:none;stroke:#FFFFFF;stroke-width:1.2;stroke-miterlimit:10;" cx="9.131" cy="9.131" r="8.531"/>
</svg>
