<?xml version="1.0" encoding="iso-8859-1"?>
<!-- Generator: Adobe Illustrator 15.1.0, SVG Export Plug-In . SVG Version: 6.00 Build 0)  -->
<!DOCTYPE svg PUBLIC "-//W3C//DTD SVG 1.1//EN" "http://www.w3.org/Graphics/SVG/1.1/DTD/svg11.dtd">
<svg version="1.1" id="Nav-Left" xmlns="http://www.w3.org/2000/svg" xmlns:xlink="http://www.w3.org/1999/xlink" x="0px" y="0px"
	 width="18.261px" height="18.262px" viewBox="0 0 18.261 18.262" style="enable-background:new 0 0 18.261 18.262;"
	 xml:space="preserve">
<g>
	<path style="fill:#FFFFFF;" d="M10.082,5.82c0.111-0.127,0.268-0.192,0.468-0.192s0.364,0.064,0.491,0.192
		c0.305,0.288,0.305,0.608,0,0.96L8.809,9.132l2.231,2.328c0.305,0.352,0.305,0.672,0,0.96c-0.127,0.128-0.287,0.192-0.479,0.192
		s-0.353-0.064-0.479-0.192L7.369,9.588C7.242,9.46,7.177,9.305,7.177,9.121s0.064-0.34,0.191-0.468
		C9.017,6.94,9.921,5.997,10.082,5.82z"/>
</g>
<circle id="Circle" style="fill:none;stroke:#FFFFFF;stroke-width:1.2;stroke-miterlimit:10;" cx="9.131" cy="9.131" r="8.531"/>
</svg>
