<?xml version="1.0" encoding="utf-8"?>
<!-- Generator: Adobe Illustrator 15.1.0, SVG Export Plug-In  -->
<!DOCTYPE svg PUBLIC "-//W3C//DTD SVG 1.1//EN" "http://www.w3.org/Graphics/SVG/1.1/DTD/svg11.dtd" [
	<!ENTITY ns_flows "http://ns.adobe.com/Flows/1.0/">
]>
<svg version="1.1"
	 xmlns="http://www.w3.org/2000/svg" xmlns:xlink="http://www.w3.org/1999/xlink" xmlns:a="http://ns.adobe.com/AdobeSVGViewerExtensions/3.0/"
	 x="0px" y="0px" width="118px" height="117px" viewBox="0 0 118 117" enable-background="new 0 0 118 117" xml:space="preserve">
<defs>
</defs>
<path fill="#FFFFFF" d="M90.971,0h-63.68C12.281,0,0,12.28,0,27.291V89.77c0,15.01,12.281,27.291,27.291,27.291h63.68
	c15.01,0,27.291-12.281,27.291-27.291V27.291C118.262,12.28,105.98,0,90.971,0z M92.123,102.278H26.139
	c-1.242,0-2.259-1.017-2.259-2.259s1.017-2.259,2.259-2.259h65.984c1.242,0,2.259,1.017,2.259,2.259S93.365,102.278,92.123,102.278z
	 M92.123,91.475H26.139c-1.242,0-2.259-1.016-2.259-2.258s1.017-2.259,2.259-2.259h65.984c1.242,0,2.259,1.017,2.259,2.259
	S93.365,91.475,92.123,91.475z M92.123,80.672H26.139c-1.242,0-2.259-1.016-2.259-2.258s1.017-2.259,2.259-2.259h65.984
	c1.242,0,2.259,1.017,2.259,2.259S93.365,80.672,92.123,80.672z M83.011,49.401c0,0-22.174-12.508-48.328,0L23.88,26.659
	c0,0,28.429-22.743,70.502,0L83.011,49.401z"/>
<rect x="56.478" y="5.622" fill="#FFFFFF" width="5.307" height="27.291"/>
</svg>
