<?xml version="1.0" encoding="utf-8"?>
<!-- Generator: Adobe Illustrator 15.1.0, SVG Export Plug-In  -->
<!DOCTYPE svg PUBLIC "-//W3C//DTD SVG 1.1//EN" "http://www.w3.org/Graphics/SVG/1.1/DTD/svg11.dtd" [
	<!ENTITY ns_flows "http://ns.adobe.com/Flows/1.0/">
]>
<svg version="1.1"
	 xmlns="http://www.w3.org/2000/svg" xmlns:xlink="http://www.w3.org/1999/xlink" xmlns:a="http://ns.adobe.com/AdobeSVGViewerExtensions/3.0/"
	 x="0px" y="0px" width="151px" height="154px" viewBox="0 0 151 154" enable-background="new 0 0 151 154" xml:space="preserve">
<defs>
</defs>
<polygon fill="#FFFFFF" points="104.109,2.813 110.528,13.769 107.229,15.701 100.81,4.746 94.509,8.438 98.437,15.142 
	95.137,17.075 91.209,10.371 84.908,14.062 91.327,25.018 88.026,26.951 81.607,15.995 75.308,19.687 79.235,26.391 75.935,28.324 
	72.007,21.62 65.706,25.312 72.125,36.268 68.824,38.201 62.406,27.245 56.105,30.937 60.033,37.641 56.733,39.574 52.806,32.869 
	46.505,36.561 52.923,47.517 49.623,49.45 43.204,38.494 36.903,42.186 40.832,48.891 37.531,50.824 33.604,44.119 27.303,47.811 
	33.722,58.767 30.421,60.7 24.003,49.744 17.702,53.436 21.63,60.141 18.33,62.073 14.401,55.369 8.102,59.061 14.52,70.017 
	11.22,71.949 4.801,60.994 0,63.807 12.838,85.719 121.748,21.912 108.91,0 "/>
<polygon fill="#FFFFFF" points="133.296,71.497 139.715,82.453 136.414,84.387 129.996,73.43 123.695,77.121 127.623,83.826 
	124.323,85.76 120.395,79.055 114.095,82.746 120.513,93.702 117.213,95.636 110.794,84.68 104.493,88.371 108.421,95.076 
	105.121,97.01 101.193,90.305 94.893,93.996 101.312,104.952 98.011,106.885 91.592,95.93 85.292,99.621 89.22,106.325 
	85.919,108.259 81.991,101.555 75.69,105.246 82.109,116.201 78.81,118.135 72.391,107.179 66.09,110.87 70.018,117.575 
	66.718,119.508 62.79,112.804 56.489,116.495 62.908,127.451 59.607,129.385 53.188,118.429 46.889,122.12 50.816,128.824 
	47.516,130.758 43.588,124.054 37.287,127.744 43.706,138.701 40.405,140.635 33.987,129.678 29.187,132.49 42.024,154.402 
	150.934,90.597 138.097,68.685 "/>
<polygon fill="#FFFFFF" points="18.019,86.039 50.237,68.685 135.143,66.519 101.787,84.713 "/>
</svg>
